<svg width="686" height="102" viewBox="0 0 686 102" fill="none" xmlns="http://www.w3.org/2000/svg">
<path d="M63.4 67.2L61.1701 65.1931L58.3093 68.3718L62.272 69.9798L63.4 67.2ZM-20.8 6V3H-23.8V6H-20.8ZM-20.8 138H-23.8V141H-20.8V138ZM12.2 58.2H9.2V61.2H12.2V58.2ZM12.2 35V32H9.2V35H12.2ZM12.2 109H9.2V112H12.2V109ZM12.2 85.8V82.8H9.2V85.8H12.2ZM88.4 98.8C88.4 90.6374 86.1895 83.5155 82.0185 77.6596C77.8574 71.8174 71.8604 67.3956 64.5281 64.4202L62.272 69.9798C68.7396 72.6044 73.7427 76.3826 77.1315 81.1404C80.5105 85.8845 82.4 91.7626 82.4 98.8H88.4ZM65.6299 69.2069C71.5883 62.5864 74.4 54.4418 74.4 45H68.4C68.4 53.1582 66.0117 59.8136 61.1701 65.1931L65.6299 69.2069ZM74.4 45C74.4 19.9407 53.4235 3 26.8 3V9C50.9765 9 68.4 24.0593 68.4 45H74.4ZM26.8 3H-20.8V9H26.8V3ZM-23.8 6V138H-17.8V6H-23.8ZM-20.8 141H40.8V135H-20.8V141ZM40.8 141C67.456 141 88.4 123.631 88.4 98.8H82.4C82.4 119.569 64.944 135 40.8 135V141ZM24.6 38C28.1538 38 30.6813 38.9925 32.2804 40.4159C33.8433 41.8071 34.8 43.8541 34.8 46.6H40.8C40.8 42.3459 39.2567 38.5929 36.2696 35.9341C33.3187 33.3075 29.2463 32 24.6 32V38ZM34.8 46.6C34.8 49.3459 33.8433 51.3929 32.2804 52.7841C30.6813 54.2075 28.1538 55.2 24.6 55.2V61.2C29.2463 61.2 33.3187 59.8925 36.2696 57.2659C39.2567 54.6071 40.8 50.8541 40.8 46.6H34.8ZM24.6 55.2H12.2V61.2H24.6V55.2ZM15.2 58.2V35H9.2V58.2H15.2ZM12.2 38H24.6V32H12.2V38ZM48.8 97.4C48.8 100.623 47.7959 102.601 46.3372 103.835C44.7949 105.14 42.289 106 38.6 106V112C43.1111 112 47.2051 110.96 50.2128 108.415C53.3041 105.799 54.8 101.977 54.8 97.4H48.8ZM38.6 106H12.2V112H38.6V106ZM15.2 109V85.8H9.2V109H15.2ZM12.2 88.8H38.6V82.8H12.2V88.8ZM38.6 88.8C42.289 88.8 44.7949 89.6601 46.3372 90.9652C47.7959 92.1994 48.8 94.1768 48.8 97.4H54.8C54.8 92.8232 53.3041 89.0005 50.2128 86.3848C47.2051 83.8399 43.1111 82.8 38.6 82.8V88.8ZM220.005 6H223.005V3H220.005V6ZM185.605 6V3H182.605V6H185.605ZM137.605 6H140.605V3H137.605V6ZM103.205 6V3H100.205V6H103.205ZM100.205 82C100.205 100.323 106.622 115.721 117.626 126.539C128.623 137.35 144.007 143.4 161.605 143.4V137.4C145.403 137.4 131.587 131.85 121.833 122.261C112.087 112.679 106.205 98.8768 106.205 82H100.205ZM161.605 143.4C196.613 143.4 223.005 118.505 223.005 82H217.005C217.005 115.095 193.396 137.4 161.605 137.4V143.4ZM223.005 82V6H217.005V82H223.005ZM220.005 3H185.605V9H220.005V3ZM182.605 6V84.6H188.605V6H182.605ZM182.605 84.6C182.605 91.4292 180.389 96.6656 176.821 100.191C173.246 103.724 168.049 105.8 161.605 105.8V111.8C169.36 111.8 176.163 109.276 181.038 104.459C185.921 99.6344 188.605 92.7708 188.605 84.6H182.605ZM161.605 105.8C155.16 105.8 149.963 103.724 146.388 100.191C142.821 96.6656 140.605 91.4292 140.605 84.6H134.605C134.605 92.7708 137.289 99.6344 142.171 104.459C147.046 109.276 153.849 111.8 161.605 111.8V105.8ZM140.605 84.6V6H134.605V84.6H140.605ZM137.605 3H103.205V9H137.605V3ZM100.205 6V82H106.205V6H100.205ZM328.206 6V3H325.206V6H328.206ZM328.206 72L326.134 74.1692L331.206 79.0148V72H328.206ZM256.606 3.59999L258.679 1.43075L257.809 0.599991H256.606V3.59999ZM245.606 3.59999V0.599991H242.606V3.59999H245.606ZM245.606 138H242.606V141H245.606V138ZM280.006 138V141H283.006V138H280.006ZM280.006 71L282.094 68.8458L277.006 63.9142V71H280.006ZM351.606 140.4L349.518 142.554L350.391 143.4H351.606V140.4ZM362.606 140.4V143.4H365.606V140.4H362.606ZM362.606 6H365.606V3H362.606V6ZM325.206 6V72H331.206V6H325.206ZM330.279 69.8308L258.679 1.43075L254.534 5.76923L326.134 74.1692L330.279 69.8308ZM256.606 0.599991H245.606V6.59999H256.606V0.599991ZM242.606 3.59999V138H248.606V3.59999H242.606ZM245.606 141H280.006V135H245.606V141ZM283.006 138V71H277.006V138H283.006ZM277.918 73.1542L349.518 142.554L353.694 138.246L282.094 68.8458L277.918 73.1542ZM351.606 143.4H362.606V137.4H351.606V143.4ZM365.606 140.4V6H359.606V140.4H365.606ZM362.606 3H328.206V9H362.606V3ZM514.366 138V141H520.428L516.751 136.18L514.366 138ZM461.566 68.8L459.134 67.0424L457.829 68.8482L459.181 70.6198L461.566 68.8ZM506.966 6L509.397 7.7576L512.836 3H506.966V6ZM466.966 6V3H465.44L464.542 4.23259L466.966 6ZM423.366 65.8H420.366V75.0069L425.79 67.5674L423.366 65.8ZM423.366 6H426.366V3H423.366V6ZM388.966 6V3H385.966V6H388.966ZM388.966 138H385.966V141H388.966V138ZM423.366 138V141H426.366V138H423.366ZM423.366 72.2L425.751 70.3803L420.366 63.3217V72.2H423.366ZM473.566 138L471.181 139.82L472.081 141H473.566V138ZM516.751 136.18L463.951 66.9802L459.181 70.6198L511.981 139.82L516.751 136.18ZM463.997 70.5576L509.397 7.7576L504.534 4.24239L459.134 67.0424L463.997 70.5576ZM506.966 3H466.966V9H506.966V3ZM464.542 4.23259L420.942 64.0326L425.79 67.5674L469.39 7.7674L464.542 4.23259ZM426.366 65.8V6H420.366V65.8H426.366ZM423.366 3H388.966V9H423.366V3ZM385.966 6V138H391.966V6H385.966ZM388.966 141H423.366V135H388.966V141ZM426.366 138V72.2H420.366V138H426.366ZM420.98 74.0197L471.181 139.82L475.951 136.18L425.751 70.3803L420.98 74.0197ZM473.566 141H514.366V135H473.566V141ZM528.028 138H525.028V141H528.028V138ZM562.428 138V141H565.428V138H562.428ZM562.428 6H565.428V3H562.428V6ZM528.028 6V3H525.028V6H528.028ZM528.028 141H562.428V135H528.028V141ZM565.428 138V6H559.428V138H565.428ZM562.428 3H528.028V9H562.428V3ZM525.028 6V138H531.028V6H525.028ZM588.77 138H585.77V141H588.77V138ZM682.77 138V141H685.77V138H682.77ZM682.77 107H685.77V104H682.77V107ZM623.17 107H620.17V110H623.17V107ZM623.17 84V81H620.17V84H623.17ZM663.97 84V87H666.97V84H663.97ZM663.97 55.2H666.97V52.2H663.97V55.2ZM623.17 55.2H620.17V58.2H623.17V55.2ZM623.17 37V34H620.17V37H623.17ZM680.37 37V40H683.37V37H680.37ZM680.37 6H683.37V3H680.37V6ZM588.77 6V3H585.77V6H588.77ZM588.77 141H682.77V135H588.77V141ZM685.77 138V107H679.77V138H685.77ZM682.77 104H623.17V110H682.77V104ZM626.17 107V84H620.17V107H626.17ZM623.17 87H663.97V81H623.17V87ZM666.97 84V55.2H660.97V84H666.97ZM663.97 52.2H623.17V58.2H663.97V52.2ZM626.17 55.2V37H620.17V55.2H626.17ZM623.17 40H680.37V34H623.17V40ZM683.37 37V6H677.37V37H683.37ZM680.37 3H588.77V9H680.37V3ZM585.77 6V138H591.77V6H585.77Z" fill="#00BE85" fill-opacity="0.5"/>
</svg>
