<svg width="275" height="351" viewBox="0 0 275 351" fill="none" xmlns="http://www.w3.org/2000/svg">
<path fill-rule="evenodd" clip-rule="evenodd" d="M-372.849 65.5628C-384.191 19.6374 -397.813 -46.3534 -359.4 -73.9365C-311.821 -108.102 -238.349 -42.3225 -186.007 -68.6042C-143.885 -89.7547 -159.892 -164.414 -122.372 -192.953C-84.7877 -221.54 -31.8783 -229.45 14.6014 -221.19C61.947 -212.777 115.341 -190.338 136.232 -146.999C158.758 -100.269 103.3 -41.2351 124.227 6.23354C146.486 56.7224 239.238 56.5804 249.856 110.732C259.204 158.404 198.889 191.603 167.91 229.012C140.803 261.747 116.995 299.652 78.5071 317.652C41.3083 335.05 -1.67606 328.325 -42.7279 327.525C-78.8387 326.822 -116.336 329.14 -148.763 313.228C-179.906 297.945 -195.618 263.763 -220.96 240.064C-246.144 216.512 -275.681 199.376 -298.322 173.365C-327.365 139.998 -362.239 108.521 -372.849 65.5628Z" fill="#027A63" fill-opacity="0.6"/>
</svg>
