<?xml version="1.0" encoding="utf-8"?>
<!-- Generator: Adobe Illustrator 25.2.1, SVG Export Plug-In . SVG Version: 6.00 Build 0)  -->
<svg version="1.1" id="Layer_1" xmlns="http://www.w3.org/2000/svg" xmlns:xlink="http://www.w3.org/1999/xlink" x="0px" y="0px"
	 viewBox="0 0 34 34" style="enable-background:new 0 0 34 34;" xml:space="preserve">
<style type="text/css">
	.st0{fill:#FFFFFF;}
</style>
<path class="st0" d="M24.9,33.8L24.9,33.8c0.9,0,1.8-0.3,2.4-1l4.5-4.5c0.2-0.2,0.3-0.3,0.4-0.5c0.1-0.2,0.1-0.4,0.1-0.6
	c0-0.2,0-0.4-0.1-0.6c-0.1-0.2-0.2-0.4-0.4-0.5l-6.7-6.7C25,19.2,24.8,19,24.6,19c-0.2-0.1-0.4-0.1-0.6-0.1c-0.2,0-0.4,0-0.6,0.1
	c-0.2,0.1-0.4,0.2-0.5,0.4L20.2,22c-1.2-0.4-3.5-1.2-5-2.7c-1.5-1.5-2.3-3.8-2.7-5l2.7-2.7c0.2-0.2,0.3-0.3,0.4-0.5
	c0.1-0.2,0.1-0.4,0.1-0.6c0-0.2,0-0.4-0.1-0.6c-0.1-0.2-0.2-0.4-0.4-0.5L8.5,2.7C8.2,2.4,7.8,2.2,7.3,2.2c-0.4,0-0.9,0.2-1.2,0.5
	L1.6,7.2c-0.6,0.6-1,1.5-1,2.4c0,2.4,0.7,10.6,7.2,17.1C14.3,33.2,22.6,33.8,24.9,33.8z M7.3,6.2l4.3,4.3l-2.2,2.2
	c-0.2,0.2-0.3,0.4-0.4,0.7C9,13.6,9,13.9,9,14.2c0,0.2,1,4.7,3.8,7.5c2.8,2.8,7.3,3.7,7.5,3.8c0.3,0.1,0.6,0,0.8,0
	c0.3-0.1,0.5-0.2,0.7-0.4l2.2-2.2l4.3,4.3L25,30.5c-2.1,0-9.2-0.6-14.8-6.2C4.6,18.7,4,11.6,4,9.5L7.3,6.2z M30.6,15.5H34
	c0-8.6-6.5-15-15-15v3.3C25.7,3.8,30.6,8.8,30.6,15.5z"/>
<path class="st0" d="M18,11.3c3.5,0,5,1.5,5,5h3.3c0-5.4-3-8.3-8.3-8.3V11.3z"/>
</svg>
