<svg width="443" height="322" viewBox="0 0 443 322" fill="none" xmlns="http://www.w3.org/2000/svg">
<path fill-rule="evenodd" clip-rule="evenodd" d="M35.1514 315.563C23.8088 269.638 10.1874 203.647 48.5996 176.064C96.1786 141.898 169.651 207.678 221.993 181.396C264.115 160.246 248.108 85.586 285.628 57.0478C323.212 28.4603 376.122 20.5508 422.601 28.8102C469.947 37.2234 523.341 59.6624 544.232 103.001C566.758 149.731 511.3 208.765 532.227 256.234C554.486 306.723 647.238 306.581 657.856 360.733C667.204 408.404 606.889 441.603 575.91 479.013C548.803 511.747 524.995 549.652 486.507 567.653C449.308 585.05 406.324 578.325 365.272 577.526C329.161 576.823 291.664 579.141 259.237 563.228C228.094 547.946 212.382 513.763 187.04 490.064C161.856 466.512 132.319 449.376 109.678 423.366C80.635 389.999 45.7612 358.521 35.1514 315.563Z" fill="#027A63" fill-opacity="0.6"/>
</svg>
