<svg width="33" height="33" viewBox="0 0 33 33" fill="none" xmlns="http://www.w3.org/2000/svg">
<path fill-rule="evenodd" clip-rule="evenodd" d="M9.88662 0.554746C11.5972 0.475996 12.1427 0.458496 16.5002 0.458496C20.8577 0.458496 21.4031 0.477454 23.1122 0.554746C24.8214 0.632038 25.9881 0.904746 27.0089 1.29995C28.0779 1.70391 29.0477 2.33537 29.8497 3.15204C30.6664 3.95266 31.2964 4.921 31.6989 5.99141C32.0956 7.01225 32.3668 8.17891 32.4456 9.88516C32.5243 11.5987 32.5418 12.1441 32.5418 16.5002C32.5418 20.8577 32.5229 21.4031 32.4456 23.1137C32.3683 24.82 32.0956 25.9866 31.6989 27.0075C31.2964 28.078 30.6654 29.048 29.8497 29.8497C29.0477 30.6664 28.0779 31.2964 27.0089 31.6989C25.9881 32.0956 24.8214 32.3668 23.1152 32.4456C21.4031 32.5243 20.8577 32.5418 16.5002 32.5418C12.1427 32.5418 11.5972 32.5229 9.88662 32.4456C8.18037 32.3683 7.0137 32.0956 5.99287 31.6989C4.92234 31.2964 3.9524 30.6653 3.15058 29.8497C2.33447 29.0486 1.70291 28.0792 1.29995 27.0089C0.904746 25.9881 0.633496 24.8214 0.554746 23.1152C0.475996 21.4016 0.458496 20.8562 0.458496 16.5002C0.458496 12.1427 0.477454 11.5972 0.554746 9.88808C0.632038 8.17891 0.904746 7.01225 1.29995 5.99141C1.70351 4.92111 2.33554 3.95166 3.15204 3.15058C3.95272 2.33464 4.92168 1.7031 5.99141 1.29995C7.01225 0.904746 8.17891 0.633496 9.88516 0.554746H9.88662ZM22.9825 3.44225C21.2908 3.36495 20.7833 3.34891 16.5002 3.34891C12.217 3.34891 11.7095 3.36495 10.0179 3.44225C8.45308 3.5137 7.60433 3.77475 7.0385 3.99495C6.29037 4.28662 5.75516 4.63225 5.1937 5.1937C4.66148 5.71149 4.25188 6.34182 3.99495 7.0385C3.77475 7.60433 3.5137 8.45308 3.44225 10.0179C3.36495 11.7095 3.34891 12.217 3.34891 16.5002C3.34891 20.7833 3.36495 21.2908 3.44225 22.9825C3.5137 24.5472 3.77475 25.396 3.99495 25.9618C4.25162 26.6575 4.66141 27.2889 5.1937 27.8066C5.71141 28.3389 6.34287 28.7487 7.0385 29.0054C7.60433 29.2256 8.45308 29.4866 10.0179 29.5581C11.7095 29.6354 12.2156 29.6514 16.5002 29.6514C20.7847 29.6514 21.2908 29.6354 22.9825 29.5581C24.5472 29.4866 25.396 29.2256 25.9618 29.0054C26.71 28.7137 27.2452 28.3681 27.8066 27.8066C28.3389 27.2889 28.7487 26.6575 29.0054 25.9618C29.2256 25.396 29.4866 24.5472 29.5581 22.9825C29.6354 21.2908 29.6514 20.7833 29.6514 16.5002C29.6514 12.217 29.6354 11.7095 29.5581 10.0179C29.4866 8.45308 29.2256 7.60433 29.0054 7.0385C28.7137 6.29037 28.3681 5.75516 27.8066 5.1937C27.2888 4.66152 26.6585 4.25193 25.9618 3.99495C25.396 3.77475 24.5472 3.5137 22.9825 3.44225ZM14.4512 21.4454C15.5955 21.9217 16.8697 21.986 18.0561 21.6273C19.2425 21.2685 20.2676 20.509 20.9563 19.4784C21.6449 18.4479 21.9544 17.2102 21.8319 15.9768C21.7094 14.7434 21.1625 13.5907 20.2845 12.7158C19.7249 12.1565 19.0482 11.7282 18.3031 11.4618C17.5581 11.1954 16.7633 11.0976 15.9759 11.1752C15.1885 11.2529 14.4281 11.5042 13.7495 11.911C13.0708 12.3178 12.4908 12.87 12.0512 13.5279C11.6116 14.1857 11.3234 14.9329 11.2072 15.7155C11.091 16.4982 11.1498 17.2968 11.3793 18.054C11.6088 18.8112 12.0034 19.5081 12.5345 20.0945C13.0657 20.681 13.7203 21.1423 14.4512 21.4454ZM10.6697 10.6697C11.4354 9.90408 12.3444 9.29673 13.3448 8.88236C14.3451 8.46798 15.4174 8.25471 16.5002 8.25471C17.583 8.25471 18.6552 8.46798 19.6556 8.88236C20.6559 9.29673 21.5649 9.90408 22.3306 10.6697C23.0962 11.4354 23.7036 12.3444 24.118 13.3448C24.5323 14.3451 24.7456 15.4174 24.7456 16.5002C24.7456 17.583 24.5323 18.6552 24.118 19.6556C23.7036 20.6559 23.0962 21.5649 22.3306 22.3306C20.7843 23.8769 18.687 24.7456 16.5002 24.7456C14.3133 24.7456 12.2161 23.8769 10.6697 22.3306C9.12342 20.7843 8.25471 18.687 8.25471 16.5002C8.25471 14.3133 9.12342 12.2161 10.6697 10.6697ZM26.5743 9.48266C26.7641 9.30368 26.916 9.08845 27.021 8.84971C27.1261 8.61097 27.1822 8.35358 27.186 8.09277C27.1898 7.83196 27.1412 7.57304 27.0432 7.33134C26.9451 7.08964 26.7995 6.87007 26.6151 6.68564C26.4307 6.5012 26.2111 6.35564 25.9694 6.25758C25.7277 6.15953 25.4688 6.11096 25.208 6.11476C24.9472 6.11856 24.6898 6.17466 24.451 6.27972C24.2123 6.38478 23.9971 6.53668 23.8181 6.72641C23.47 7.09541 23.2794 7.58555 23.2868 8.09277C23.2942 8.59999 23.499 9.08436 23.8577 9.44306C24.2164 9.80176 24.7008 10.0065 25.208 10.0139C25.7152 10.0213 26.2053 9.83075 26.5743 9.48266Z" fill="white"/>
</svg>
