<?xml version="1.0" encoding="utf-8"?>
<!-- Generator: Adobe Illustrator 25.2.1, SVG Export Plug-In . SVG Version: 6.00 Build 0)  -->
<svg version="1.1" id="Layer_1" xmlns="http://www.w3.org/2000/svg" xmlns:xlink="http://www.w3.org/1999/xlink" x="0px" y="0px"
	 viewBox="0 0 34 34" style="enable-background:new 0 0 34 34;" xml:space="preserve">
<style type="text/css">
	.st0{fill:#3E3E3E;}
	.st1{fill:#00BE85;}
</style>
<path class="st0" d="M33.1,29.9c-1.1-1-2-2.1-2.8-3.3c-0.9-1.7-1.4-3.5-1.5-5.3v-5.5c0-0.7-0.1-1.3-0.2-2c-0.9-0.2-1.7-0.5-2.5-0.9
	c0.3,0.9,0.4,1.9,0.4,2.9v5.5c0.1,2.3,0.8,4.5,1.8,6.5c0.8,1.2,1.7,2.3,2.7,3.3H2.7c1-1,1.9-2.1,2.7-3.3c1.1-2,1.7-4.2,1.8-6.5v-5.5
	c0-1.3,0.2-2.6,0.7-3.8c0.5-1.2,1.2-2.3,2.1-3.2c0.9-0.9,2-1.6,3.2-2.1C14.4,6.3,15.7,6,17,6c1.9,0,3.7,0.6,5.3,1.6
	C22.1,7,22,6.3,22,5.7V5c-1.2-0.6-2.4-0.9-3.7-1.1V2.5c0-0.4-0.2-0.8-0.4-1c-0.3-0.3-0.7-0.4-1-0.4s-0.8,0.2-1,0.4s-0.4,0.7-0.4,1
	v1.5c-2.9,0.4-5.5,1.8-7.4,4C6,10.1,5,12.9,5,15.8v5.5c-0.1,1.9-0.6,3.7-1.5,5.3c-0.8,1.2-1.7,2.3-2.7,3.3c-0.1,0.1-0.2,0.2-0.3,0.4
	c-0.1,0.1-0.1,0.3-0.1,0.5v1.5c0,0.3,0.1,0.6,0.3,0.8c0.2,0.2,0.5,0.3,0.8,0.3h30.9c0.3,0,0.6-0.1,0.8-0.3c0.2-0.2,0.3-0.5,0.3-0.8
	v-1.5c0-0.2,0-0.3-0.1-0.5C33.3,30.2,33.2,30,33.1,29.9z"/>
<path class="st1" d="M28.4,13.1c3.1,0,5.6-2.5,5.6-5.6S31.5,2,28.4,2s-5.6,2.5-5.6,5.6S25.4,13.1,28.4,13.1z"/>
</svg>
